<svg id="Laag_1" data-name="Laag 1" xmlns="http://www.w3.org/2000/svg" viewBox="0 0 989.44 450.87">
  <defs>
    <style>
      .cls-1 {
        fill: #263050;
      }

      .cls-2 {
        fill: #0000f9;
      }

      .cls-3 {
        fill: #fff;
      }
    </style>
  </defs>
  <g>
    <path class="cls-1" d="M672.55,265c-2.83,2.73-5.79,5.46-9,8.37-24.46,23.33-106,104.5-127.88,169.35l-.1.38c-.17.6-.7,2.52-1.46,5.47-.21.73-.43,1.47-.64,2.21-.72,2.44-1.46,5-1.9,7.29a331.36,331.36,0,0,0-7.3,38.35c-1.79,12.48-2.49,22.92-2.09,31.07,0,4.33.12,8.66.3,13h572.29V89.57H766.54a321.23,321.23,0,0,1-86.69,168.1C677.5,260.1,675,262.55,672.55,265Z" transform="translate(-105.28 -89.57)"/>
    <path class="cls-2" d="M522.13,527.44c-.4-8.15.3-18.59,2.09-31.07a331.36,331.36,0,0,1,7.3-38.35c.44-2.33,1.18-4.85,1.9-7.29.21-.74.43-1.48.64-2.21.76-2.95,1.29-4.87,1.46-5.47l.1-.38c21.89-64.85,103.42-146,127.88-169.35,3.26-2.91,6.22-5.64,9-8.37,2.48-2.4,5-4.85,7.3-7.28a321.23,321.23,0,0,0,86.69-168.1H105.28V540.43H522.43C522.25,536.1,522.13,531.77,522.13,527.44Z" transform="translate(-105.28 -89.57)"/>
    <g>
      <path class="cls-3" d="M516.81,290.41C516.81,296,513,302,504.07,302H486.82V261.54h16c7.22,0,11.86,4.34,11.86,10.44,0,3-1.18,7-5.58,8.4C514.28,281.26,516.81,285.83,516.81,290.41ZM495,268.76v8.86h7.39c2.58,0,4.17-1.7,4.17-4.46,0-2.47-1.29-4.4-4.17-4.4Zm13.61,20.83c0-2.52-1.7-5.16-5.57-5.16h-8v10.32h7.92C506.71,294.75,508.59,292.29,508.59,289.59Z" transform="translate(-105.28 -89.57)"/>
      <path class="cls-3" d="M543,274.8l-1.76,7.34a8,8,0,0,0-3.94-1c-3.93,0-6.63,3.64-6.63,11.44V302H523V274.62h7.63v5.82c1.53-4.58,4.64-6.52,8-6.52A9.88,9.88,0,0,1,543,274.8Z" transform="translate(-105.28 -89.57)"/>
      <path class="cls-3" d="M574.74,274.62V302h-7.69v-3.4c-1.94,2.7-5.75,3.93-8.8,3.93-7,0-13.44-5.46-13.44-14.26S551.2,274,558.25,274c3.17,0,6.86,1.17,8.8,3.93v-3.29Zm-7.93,13.62a7.1,7.1,0,1,0-7.1,7.1A7.06,7.06,0,0,0,566.81,288.24Z" transform="translate(-105.28 -89.57)"/>
      <path class="cls-3" d="M609.25,287v15h-7.69v-14.2c0-4.34-2.58-6.28-5.22-6.28s-6.16,1.47-6.16,6.46v14h-7.69V274.62h7.69v4.58c1.17-3.69,5.51-5.28,8.21-5.28C605.55,273.92,609.31,278.73,609.25,287Z" transform="translate(-105.28 -89.57)"/>
      <path class="cls-3" d="M644.93,260v42h-7.68v-3.4c-1.94,2.7-5.76,3.93-8.81,3.93-7,0-13.44-5.46-13.44-14.26S621.4,274,628.44,274c3.17,0,6.87,1.17,8.81,3.93V260ZM637,288.24a7.1,7.1,0,1,0-7.1,7.1A7.06,7.06,0,0,0,637,288.24Z" transform="translate(-105.28 -89.57)"/>
      <path class="cls-3" d="M651.63,265.12a4.88,4.88,0,1,1,4.87,4.63A4.73,4.73,0,0,1,651.63,265.12Zm1,9.5h7.69V302h-7.69Z" transform="translate(-105.28 -89.57)"/>
      <path class="cls-3" d="M694.88,287v15h-7.69v-14.2c0-4.34-2.58-6.28-5.22-6.28s-6.16,1.47-6.16,6.46v14h-7.69V274.62h7.69v4.58c1.17-3.69,5.51-5.28,8.21-5.28C691.18,273.92,694.94,278.73,694.88,287Z" transform="translate(-105.28 -89.57)"/>
      <path class="cls-3" d="M730.56,274.62v23.6c0,12-6,17.54-15.72,17.54a14.55,14.55,0,0,1-13.33-8.33l6.4-2.76a7.82,7.82,0,0,0,6.93,4.23c4.93,0,8-2.7,8-9.86v-.41c-2,2.64-5.76,3.87-8.81,3.87-7,0-13.44-5.46-13.44-14.26S707,274,714.07,274c3.11,0,6.81,1.23,8.81,3.87v-3.23Zm-7.92,13.62a7.1,7.1,0,1,0-7.1,7.1A7.06,7.06,0,0,0,722.64,288.24Z" transform="translate(-105.28 -89.57)"/>
      <path class="cls-3" d="M458.71,340.48a20.57,20.57,0,0,1,20.66-20.78,20,20,0,0,1,15,6.46l-5.93,5.1a12.34,12.34,0,0,0-9-4c-7.05,0-12.5,6-12.5,13.21s5.45,13.44,12.5,13.44c5.28,0,9.44-2.53,10.5-6.75a4.43,4.43,0,0,0,.23-1H478.66v-6.63H499c0,15-8,21.65-19.66,21.65A20.55,20.55,0,0,1,458.71,340.48Z" transform="translate(-105.28 -89.57)"/>
      <path class="cls-3" d="M530.84,333.32v27.35h-7.69v-4.46c-1.17,3.58-5.52,5.1-8.22,5.1-7.16,0-10.91-4.75-10.85-13v-15h7.68v14.2c0,4.28,2.59,6.22,5.23,6.22s6.16-1.47,6.16-6.4v-14Z" transform="translate(-105.28 -89.57)"/>
      <path class="cls-3" d="M537.53,323.81a4.88,4.88,0,1,1,4.87,4.64A4.78,4.78,0,0,1,537.53,323.81Zm1.06,9.51h7.68v27.35h-7.68Z" transform="translate(-105.28 -89.57)"/>
      <path class="cls-3" d="M582.31,318.71v42h-7.69v-3.41c-1.94,2.7-5.75,3.93-8.8,3.93-7,0-13.44-5.45-13.44-14.26s6.4-14.26,13.44-14.26c3.17,0,6.86,1.18,8.8,3.93V318.71Zm-7.92,28.22a7.08,7.08,0,0,0-7.1-7,7,7,0,0,0-7.11,7,7.11,7.11,0,0,0,14.21,0Z" transform="translate(-105.28 -89.57)"/>
      <path class="cls-3" d="M617.05,349.46H596.4c.82,3.16,3.4,4.93,7.1,4.93a9.51,9.51,0,0,0,7.16-3.06l4.52,4.52c-2.59,3.47-7.4,5.34-12.21,5.34-8.39,0-14.55-5.75-14.55-14.2,0-8.86,6.69-14.38,14.55-14.38s14.2,5.52,14.2,13.91C617.17,347.29,617.11,348.22,617.05,349.46Zm-7.57-5c-.23-3.23-2.93-5.17-6.39-5.17-3.11,0-5.87,1.47-6.69,5.17Z" transform="translate(-105.28 -89.57)"/>
      <path class="cls-3" d="M623.1,318.71h7.69v42H623.1Z" transform="translate(-105.28 -89.57)"/>
      <path class="cls-3" d="M637.48,323.81a4.88,4.88,0,1,1,4.87,4.64A4.78,4.78,0,0,1,637.48,323.81Zm1.06,9.51h7.69v27.35h-7.69Z" transform="translate(-105.28 -89.57)"/>
      <path class="cls-3" d="M680.73,345.64v15h-7.68V346.46c0-4.34-2.59-6.28-5.23-6.28s-6.16,1.47-6.16,6.46v14H654V333.32h7.69v4.58c1.17-3.7,5.52-5.29,8.22-5.29C677,332.61,680.79,337.43,680.73,345.64Z" transform="translate(-105.28 -89.57)"/>
      <path class="cls-3" d="M715.13,349.46H694.47c.82,3.16,3.4,4.93,7.1,4.93a9.5,9.5,0,0,0,7.16-3.06l4.52,4.52c-2.58,3.47-7.4,5.34-12.21,5.34-8.39,0-14.55-5.75-14.55-14.2,0-8.86,6.69-14.38,14.55-14.38s14.2,5.52,14.2,13.91C715.24,347.29,715.18,348.22,715.13,349.46Zm-7.57-5c-.24-3.23-2.94-5.17-6.4-5.17-3.11,0-5.87,1.47-6.69,5.17Z" transform="translate(-105.28 -89.57)"/>
      <path class="cls-3" d="M719.47,351.86h7.22c0,1.59,1.35,3.29,4,3.29,2.23,0,3.93-.94,3.93-2.53,0-1.17-.94-1.76-3-2.28l-3.64-.88c-7-1.88-8-5.81-8-8.69,0-4.23,4.4-8.16,10.74-8.16,5,0,10.86,2.47,10.8,8.92h-7.34c0-1.82-1.52-2.81-3.34-2.81s-3.17.88-3.17,2.29,1.17,1.93,2.7,2.34l4.51,1.18c6.58,1.76,7.4,5.87,7.4,8.09,0,5.76-5.87,8.57-11.5,8.57S719.53,357.91,719.47,351.86Z" transform="translate(-105.28 -89.57)"/>
      <path class="cls-3" d="M747.41,356.44a4.74,4.74,0,0,1,4.87-4.69,4.73,4.73,0,1,1,0,9.44A4.76,4.76,0,0,1,747.41,356.44Z" transform="translate(-105.28 -89.57)"/>
    </g>
  </g>
</svg>
