<?xml version="1.0" encoding="utf-8"?>
<!-- Generator: Adobe Illustrator 24.1.0, SVG Export Plug-In . SVG Version: 6.00 Build 0)  -->
<svg version="1.1" id="Laag_1" xmlns="http://www.w3.org/2000/svg" xmlns:xlink="http://www.w3.org/1999/xlink" x="0px" y="0px"
	 viewBox="0 0 558.43 311.81" style="enable-background:new 0 0 558.43 311.81;" xml:space="preserve">
<style type="text/css">
	.st0{fill:none;}
	.st1{fill:#E52421;}
	.st2{font-family:'CircularStd-Book';}
	.st3{font-size:27.467px;}
	.st4{opacity:0.8;fill:#E52421;}
</style>
<rect x="217.34" y="130.96" class="st0" width="209.44" height="61.33"/>
<text transform="matrix(1 0 0 1 217.3345 150.8418)"><tspan x="0" y="0" class="st1 st2 st3">Brandweerzone</tspan><tspan x="0" y="25.08" class="st1 st2 st3">Centrum</tspan></text>
<g>
	<path class="st4" d="M207.41,156.5c-0.21-4.62-2.3-10.18-6.2-16.51c0,0.03-11.58-18.61-30.39-36.66c0.35,0.45,0.66,0.88,0.95,1.29
		c0.02,0.03,0.03,0.05,0.05,0.08c0.02,0.02,0.03,0.05,0.05,0.07c0.36,0.53,0.71,1.09,1.04,1.68c0.02,0.04,0.05,0.08,0.07,0.12
		c0.03,0.04,0.05,0.09,0.08,0.13c0.31,0.56,0.61,1.14,0.91,1.79c0.05,0.12,0.11,0.24,0.16,0.36c0.29,0.65,0.54,1.26,0.75,1.86
		c0.02,0.05,0.04,0.1,0.05,0.15c0.01,0.04,0.02,0.07,0.04,0.11c0.22,0.64,0.42,1.27,0.58,1.89c0.01,0.02,0.01,0.05,0.02,0.07
		c0.01,0.03,0.02,0.06,0.03,0.1c0.16,0.61,0.3,1.26,0.43,2l0.02,0.12c0.02,0.09,0.03,0.17,0.05,0.26c0.09,0.54,0.16,1.07,0.22,1.6
		c1.59,11.89-5.34,20.6-7.45,22.95c2.61,2.49,11.11,11.01,11.11,16.61c0,2.64-0.84,5.14-2.42,7.23c-1.47,1.94-3.44,3.36-5.73,4.12
		c0.22-0.03,0.45-0.06,0.66-0.09l0.27-0.04c0.47-0.07,0.95-0.13,1.42-0.22c0.3-0.06,0.6-0.12,0.9-0.19l0.22-0.05
		c0.5-0.11,0.94-0.21,1.39-0.33c0.36-0.1,0.73-0.21,1.09-0.32c0.4-0.12,0.88-0.27,1.35-0.43c0.38-0.13,0.75-0.27,1.05-0.39
		c0.48-0.19,0.91-0.36,1.31-0.53c0.3-0.13,0.63-0.28,1.02-0.47c0.45-0.21,0.86-0.42,1.25-0.63c0.35-0.18,0.67-0.36,0.99-0.54
		c0.38-0.22,0.77-0.45,1.19-0.72c0.37-0.23,0.68-0.43,0.95-0.61c0.42-0.28,0.82-0.58,1.13-0.8c0.31-0.23,0.61-0.45,0.9-0.68
		c0.38-0.3,0.75-0.62,1.07-0.88l0.06-0.05c0.26-0.22,0.53-0.45,0.79-0.69c0.35-0.33,0.7-0.67,1-0.96l0.15-0.15
		c0.21-0.21,0.43-0.43,0.64-0.65c0.31-0.33,0.61-0.67,0.9-1.01l0.19-0.22c0.19-0.22,0.38-0.44,0.57-0.67
		c0.26-0.33,0.52-0.67,0.77-1.01l0.09-0.12c0.06-0.08,0.12-0.16,0.18-0.24c0.16-0.21,0.33-0.43,0.48-0.66
		c0.23-0.33,0.45-0.68,0.66-1.02l0.13-0.2c0.06-0.1,0.13-0.2,0.19-0.3c0.13-0.2,0.26-0.41,0.39-0.62c0.22-0.38,0.43-0.77,0.63-1.16
		l0.1-0.19c0.06-0.11,0.12-0.22,0.18-0.33c0.1-0.19,0.21-0.39,0.31-0.58c0.23-0.47,0.43-0.96,0.64-1.43l0.06-0.14
		c0.05-0.11,0.09-0.21,0.14-0.32c0.07-0.15,0.14-0.31,0.21-0.47c0.33-0.82,0.62-1.65,0.87-2.46c0.11-0.35,0.21-0.71,0.31-1.08
		c-0.04,0.18-0.09,0.35-0.13,0.53c-3.63,14.02-15.76,24.25-30.2,25.45c-0.85,0.13-1.69,0.17-2.57,0.12
		c-2.87-0.17-5.57-1.37-7.62-3.37c-1.94-1.9-3.18-4.41-3.52-7.1c0,0.01,0,0.03-0.01,0.04c-0.16,1.33-0.22,2.49-0.17,3.55
		c0.16,1.67,0.33,3.39,0.73,5.01c2.92,11.67,13.76,19.73,25.8,19.18c0.62-0.03,1.24-0.08,1.85-0.15c0.09-0.01,0.18-0.03,0.27-0.04
		c0.07-0.01,0.14-0.03,0.22-0.04l0.09-0.01c0.41-0.06,0.83-0.12,1.24-0.2c0.1-0.02,0.2-0.04,0.3-0.07c0.08-0.02,0.15-0.04,0.23-0.05
		l0.1-0.02c0.38-0.08,0.77-0.17,1.15-0.27c0.09-0.02,0.18-0.05,0.27-0.08c0.07-0.02,0.14-0.05,0.22-0.07l0.09-0.03
		c0.38-0.11,0.78-0.23,1.16-0.36c0.06-0.02,0.11-0.04,0.17-0.07c0.05-0.02,0.1-0.04,0.15-0.06c0.42-0.15,0.91-0.33,1.37-0.54
		c0.05-0.02,0.09-0.04,0.14-0.07c0.04-0.02,0.09-0.04,0.13-0.06c0.41-0.18,0.89-0.4,1.36-0.65c0.05-0.03,0.1-0.06,0.15-0.09
		c0.04-0.02,0.08-0.05,0.12-0.07c0.41-0.22,0.86-0.46,1.29-0.73c0.07-0.04,0.13-0.08,0.19-0.13c0.05-0.04,0.1-0.07,0.15-0.1
		c0.39-0.25,0.78-0.5,1.15-0.76c0.06-0.05,0.12-0.09,0.19-0.14c0.05-0.04,0.11-0.09,0.16-0.13c0.34-0.25,0.72-0.53,1.08-0.83
		c0.07-0.06,0.14-0.12,0.21-0.19c0.05-0.05,0.11-0.1,0.16-0.15l0.07-0.06c0.3-0.26,0.61-0.52,0.9-0.8c0.08-0.08,0.17-0.16,0.24-0.25
		c0.06-0.06,0.11-0.12,0.17-0.18l0.14-0.14c0.24-0.23,0.48-0.48,0.71-0.73c0.09-0.1,0.18-0.21,0.26-0.31
		c0.06-0.07,0.11-0.14,0.17-0.2l0.15-0.17c0.2-0.23,0.4-0.46,0.59-0.7c0.1-0.13,0.2-0.27,0.3-0.4c0.06-0.08,0.11-0.16,0.17-0.24
		c0.06-0.08,0.11-0.15,0.17-0.22c0.15-0.2,0.3-0.4,0.44-0.61c0.11-0.17,0.22-0.35,0.33-0.52c0.05-0.09,0.11-0.17,0.16-0.26
		c0.05-0.09,0.11-0.17,0.16-0.26c0.11-0.17,0.22-0.34,0.32-0.52c0.11-0.19,0.21-0.39,0.31-0.58c0.05-0.09,0.09-0.18,0.14-0.27
		c0.05-0.09,0.09-0.18,0.14-0.26c0.09-0.16,0.18-0.33,0.26-0.51c0.11-0.23,0.21-0.46,0.31-0.7c0.04-0.09,0.08-0.18,0.12-0.27
		c0.04-0.09,0.08-0.18,0.12-0.27c0.07-0.15,0.14-0.3,0.2-0.45l-0.01-0.14l0.06,0c0,0,0.46-1.11,0.61-1.64l-0.03-0.01l0.08-0.27
		l0.02,0.01c0.03-0.12,0.06-0.23,0.09-0.35l-0.02-0.01l0.08-0.29l0.01,0c0.03-0.11,0.06-0.22,0.08-0.33l0.01-0.05l0.06-0.26l0.01,0
		c0.02-0.11,0.05-0.21,0.07-0.31l0.01-0.05l0.06-0.28l0.01,0c0.02-0.1,0.04-0.2,0.07-0.3l0-0.05c0.02-0.08,0.03-0.16,0.05-0.23
		l0.01-0.05l0.01,0c0.02-0.1,0.04-0.2,0.06-0.3l-0.02,0l0.06-0.35l0.02,0C207.34,162.52,207.55,159.51,207.41,156.5z"/>
	<path class="st1" d="M203.08,174.53c-0.03,0.05-0.11,0.08-0.14,0.13c-0.03,0.06-0.34,0.42-0.37,0.48c-0.32,0.5-0.75,0.88-1.11,1.36
		c-0.05,0.06-0.1,0.12-0.15,0.18c-0.04,0.05-0.08,0.09-0.11,0.14c-0.25,0.32-0.55,0.7-0.86,1.06c-0.09,0.1-0.18,0.2-0.27,0.29
		c-0.06,0.06-0.11,0.12-0.17,0.18c-0.25,0.28-0.51,0.56-0.77,0.83c-0.11,0.11-0.23,0.23-0.35,0.33c-0.06,0.05-0.11,0.1-0.17,0.16
		l-0.03,0.03c-0.24,0.23-0.49,0.46-0.74,0.68c-0.15,0.13-0.31,0.26-0.46,0.39l-0.11,0.09c-0.25,0.21-0.52,0.43-0.79,0.64
		c-0.17,0.13-0.34,0.25-0.51,0.38l-0.1,0.08c-0.26,0.18-0.53,0.38-0.82,0.57c-0.22,0.15-0.44,0.28-0.65,0.41
		c-0.29,0.18-0.57,0.35-0.85,0.51c-0.21,0.12-0.43,0.24-0.68,0.37c-0.28,0.15-0.57,0.29-0.88,0.44c-0.28,0.14-0.5,0.24-0.71,0.33
		c-0.26,0.12-0.54,0.23-0.91,0.38l-0.08,0.03c-0.21,0.08-0.43,0.17-0.65,0.25c-0.32,0.12-0.65,0.22-0.95,0.32l-0.17,0.05
		c-0.19,0.06-0.38,0.12-0.57,0.18c-0.33,0.1-0.67,0.18-1,0.26l-0.19,0.05c-0.18,0.05-0.36,0.09-0.54,0.13
		c-0.32,0.07-0.64,0.12-0.96,0.18l-0.11,0.02c-0.07,0.01-0.15,0.03-0.22,0.04c-0.16,0.03-0.32,0.06-0.48,0.08
		c-0.38,0.05-0.76,0.09-1.14,0.13l-0.06,0.01c-0.08,0.01-0.16,0.02-0.24,0.03c-0.12,0.01-0.23,0.03-0.35,0.04
		c-0.62,0.04-1.23,0.07-1.82,0.07c-12.21,0-22.82-8.68-25.23-20.63c-0.34-1.67-0.51-3.38-0.51-5.09c-0.03-0.68,0.02-1.55,0.17-2.58
		c0.13-1.03,0.33-2.08,0.61-3.19c0.04-0.19,0.1-0.4,0.16-0.61c0.02-0.06,0.04-0.12,0.05-0.18c0.06-0.25,0.11-0.41,0.12-0.46
		l0.01-0.03c1.82-5.39,8.6-12.14,10.64-14.09c0.27-0.24,0.52-0.47,0.75-0.7c0.21-0.2,0.41-0.4,0.61-0.61
		c4.92-5.05,7.64-11.71,7.64-18.76c0-0.45-0.01-0.9-0.03-1.36c0-0.09-0.01-0.17-0.02-0.26c0-0.06-0.01-0.12-0.01-0.18l0-0.07
		c-0.02-0.27-0.04-0.55-0.06-0.83c-0.01-0.11-0.02-0.22-0.04-0.33c-0.01-0.06-0.02-0.13-0.02-0.19l-0.02-0.16
		c-0.02-0.21-0.05-0.44-0.08-0.65c-0.02-0.12-0.04-0.23-0.06-0.34c-0.01-0.07-0.03-0.14-0.04-0.21l-0.03-0.17
		c-0.03-0.19-0.07-0.39-0.1-0.59c-0.03-0.13-0.06-0.26-0.08-0.38c-0.01-0.06-0.03-0.13-0.04-0.19l-0.03-0.15
		c-0.04-0.19-0.08-0.38-0.13-0.57c-0.03-0.13-0.07-0.25-0.1-0.38c-0.02-0.07-0.04-0.13-0.06-0.2l-0.03-0.13
		c-0.05-0.19-0.1-0.38-0.16-0.57c-0.04-0.14-0.09-0.27-0.13-0.4l-0.11-0.34c-0.06-0.17-0.11-0.34-0.17-0.51
		c-0.05-0.14-0.11-0.28-0.16-0.42l-0.08-0.19c-0.08-0.2-0.16-0.41-0.24-0.61c-0.06-0.15-0.13-0.3-0.2-0.44l-0.1-0.21
		c-0.08-0.18-0.16-0.36-0.25-0.54c-0.07-0.15-0.15-0.3-0.22-0.45l-0.09-0.18c-0.09-0.18-0.19-0.37-0.28-0.55
		c-0.08-0.14-0.15-0.28-0.23-0.41l-0.09-0.17c-0.11-0.19-0.22-0.38-0.33-0.57c-0.09-0.16-0.19-0.31-0.29-0.46l-0.09-0.14
		c-0.11-0.17-0.22-0.34-0.33-0.51c-0.09-0.14-0.19-0.27-0.29-0.41l-0.08-0.11c-0.13-0.19-0.27-0.38-0.41-0.56
		c-0.13-0.17-0.26-0.34-0.39-0.5c-0.16-0.2-0.29-0.37-0.44-0.54c-0.14-0.16-0.28-0.33-0.42-0.48c-0.15-0.17-0.31-0.35-0.47-0.53
		c-0.14-0.16-0.29-0.31-0.44-0.46c-0.05-0.05-0.09-0.09-0.14-0.14c0.08,0.22,0.14,0.45,0.21,0.66l0.05,0.15
		c0.02,0.05,0.03,0.11,0.05,0.16c0.02,0.07,0.05,0.14,0.07,0.22c0.02,0.09,0.05,0.18,0.07,0.26c0.02,0.07,0.03,0.13,0.05,0.19
		c0.37,1.46,0.55,2.94,0.55,4.4c0,7.95-5.09,14.9-12.66,17.3l0,0l-0.04,0.01c-0.02,0.01-0.04,0.01-0.06,0.02
		c-0.03,0.01-0.05,0.02-0.08,0.03l-0.2,0.06l-0.02-0.21c-0.34-3.09-1.49-6.05-3.34-8.57l-0.02-0.03l0,0
		c-0.01-0.01-0.01-0.01-0.02-0.02c0-0.01-0.01-0.01-0.01-0.02c-2.63,2.91-5.1,5.79-7.34,8.57c-4.6,5.7-8.32,11.05-11.05,15.9
		c-0.34,0.61-0.67,1.22-0.98,1.8c-0.23,0.44-0.47,0.9-0.7,1.37c-2.65,5.35-3.99,10.07-3.99,14.03c0,3.34,0.43,6.67,1.27,9.89
		c0.14,0.55,0.31,1.09,0.47,1.63c2.31,7.42,6.88,14.1,13,18.98c0.23,0.18,0.46,0.37,0.69,0.54c0.08,0.06,0.15,0.11,0.23,0.17
		c6.52,4.84,14.59,7.71,23.33,7.71c9.85,0,18.84-3.63,25.72-9.63c0.02-0.02,0.05-0.04,0.07-0.06c0.27-0.23,0.53-0.47,0.79-0.71
		c0.46-0.43,0.91-0.85,1.34-1.3c0.05-0.05,0.09-0.1,0.14-0.14C198.66,181.53,201.28,178.23,203.08,174.53
		C203.03,174.61,203.13,174.45,203.08,174.53z"/>
</g>
</svg>
