<?xml version="1.0" encoding="utf-8"?>
<!-- Generator: Adobe Illustrator 24.1.0, SVG Export Plug-In . SVG Version: 6.00 Build 0)  -->
<svg version="1.1" id="Laag_1" xmlns="http://www.w3.org/2000/svg" xmlns:xlink="http://www.w3.org/1999/xlink" x="0px" y="0px"
	 viewBox="0 0 558.4 311.8" style="enable-background:new 0 0 558.4 311.8;" xml:space="preserve">
<style type="text/css">
	.st0{fill:none;}
	.st1{enable-background:new    ;}
	.st2{fill:#FF0000;}
	.st3{opacity:0.8;fill:#FF0005;enable-background:new    ;}
	.st4{fill:#FF0005;}
</style>
<rect x="217.3" y="131" class="st0" width="209.4" height="61.3"/>
<g class="st1">
	<path class="st2" d="M219.8,131.4h6.3c1.8,0,3.2,0.5,4.3,1.5c1.1,1,1.6,2.2,1.6,3.8c0,1-0.3,1.9-0.8,2.6c-0.5,0.7-1.2,1.3-2.1,1.6
		c1.1,0.3,1.9,0.8,2.6,1.7c0.6,0.9,0.9,1.9,0.9,3c0,1.5-0.6,2.8-1.7,3.8c-1.1,1-2.6,1.5-4.3,1.5h-6.8V131.4z M222.5,139.9h3.4
		c1.1,0,1.9-0.3,2.5-0.9c0.6-0.6,0.9-1.3,0.9-2.2c0-0.9-0.3-1.7-1-2.2c-0.6-0.5-1.5-0.8-2.6-0.8h-3.2V139.9z M222.5,148.5h3.7
		c1.1,0,2-0.3,2.7-0.9c0.7-0.6,1-1.3,1-2.3c0-1-0.3-1.7-0.9-2.3c-0.6-0.6-1.5-0.9-2.6-0.9h-3.8V148.5z"/>
	<path class="st2" d="M243.3,137.5v2.7c-0.4-0.1-0.8-0.1-1.1-0.1c-2.4,0-3.6,1.4-3.6,4.1v6.6h-2.6v-13.2h2.5v2.3
		c0.8-1.7,2.1-2.5,4-2.5C242.7,137.4,243,137.4,243.3,137.5z"/>
	<path class="st2" d="M245.2,147.3c0-1.1,0.4-2,1.1-2.7s1.7-1.1,2.9-1.3l3.6-0.5c0.7-0.1,1-0.4,1-1c0-0.7-0.2-1.3-0.7-1.7
		c-0.5-0.4-1.2-0.7-2.1-0.7c-0.9,0-1.6,0.2-2.1,0.7s-0.8,1.1-0.9,1.9l-2.5-0.6c0.1-1.3,0.7-2.3,1.7-3.1c1-0.8,2.3-1.2,3.7-1.2
		c1.9,0,3.3,0.5,4.1,1.4c0.9,0.9,1.3,2.1,1.3,3.5v6.6c0,0.8,0.1,1.5,0.2,2.2H254c-0.1-0.5-0.1-1.1-0.1-1.8c-0.4,0.6-0.9,1.1-1.6,1.5
		c-0.7,0.4-1.6,0.7-2.7,0.7c-1.3,0-2.4-0.4-3.2-1.2C245.6,149.3,245.2,148.4,245.2,147.3z M250,149.1c1.2,0,2.1-0.3,2.8-0.9
		c0.7-0.6,1-1.6,1-3v-0.6l-4,0.6c-0.6,0.1-1.1,0.3-1.4,0.6c-0.3,0.3-0.5,0.8-0.5,1.3c0,0.5,0.2,1,0.6,1.3
		C248.8,148.9,249.3,149.1,250,149.1z"/>
	<path class="st2" d="M263,143.2v7.6h-2.6v-13.2h2.5v1.9c0.9-1.5,2.2-2.3,4.1-2.3c1.5,0,2.7,0.5,3.5,1.5c0.8,1,1.2,2.2,1.2,3.8v8.4
		h-2.6v-7.9c0-2.2-1-3.3-3.1-3.3c-1,0-1.7,0.3-2.3,1C263.2,141.3,263,142.2,263,143.2z"/>
	<path class="st2" d="M285.1,149.1v-0.2c-0.3,0.7-0.9,1.2-1.6,1.7c-0.7,0.4-1.5,0.7-2.5,0.7c-1.9,0-3.4-0.7-4.5-2
		c-1.1-1.3-1.7-3-1.7-5c0-1.9,0.6-3.6,1.8-4.9s2.7-2,4.5-2c1.1,0,2,0.2,2.6,0.6c0.7,0.4,1.1,1,1.4,1.6V131h2.6v17.4
		c0,0.9,0,1.7,0.1,2.4h-2.5C285.1,150.3,285.1,149.7,285.1,149.1z M277.3,144.2c0,1.4,0.3,2.5,1,3.4c0.7,0.9,1.6,1.3,2.8,1.3
		c1.2,0,2.1-0.4,2.8-1.3c0.7-0.9,1-2,1-3.4c0-1.4-0.3-2.5-1-3.3c-0.7-0.8-1.6-1.3-2.8-1.3s-2.1,0.4-2.8,1.3
		C277.7,141.7,277.3,142.8,277.3,144.2z"/>
	<path class="st2" d="M299.4,137.6h2.7l3.4,9.9l2.9-9.9h2.7l-4.3,13.2h-2.7l-3.5-10.1l-3.4,10.1h-2.7l-4.3-13.2h2.8l3,9.9
		L299.4,137.6z"/>
	<path class="st2" d="M322.8,146.3l2.2,0.8c-0.4,1.2-1.1,2.2-2.1,3c-1,0.8-2.3,1.2-3.8,1.2c-1.8,0-3.4-0.6-4.7-1.9
		c-1.3-1.3-1.9-3-1.9-5.2c0-2,0.6-3.7,1.9-5c1.2-1.3,2.7-2,4.4-2c2,0,3.6,0.6,4.7,1.9c1.1,1.3,1.7,2.9,1.7,5c0,0.3,0,0.6-0.1,0.8
		h-9.9c0,1.2,0.4,2.1,1.2,2.9c0.8,0.8,1.7,1.1,2.8,1.1C320.9,149,322.2,148.1,322.8,146.3z M315.1,142.9h7.2c0-1-0.4-1.8-1-2.4
		c-0.6-0.6-1.5-0.9-2.6-0.9c-1,0-1.9,0.3-2.5,1C315.6,141.2,315.2,142,315.1,142.9z"/>
	<path class="st2" d="M337.6,146.3l2.2,0.8c-0.4,1.2-1.1,2.2-2.1,3c-1,0.8-2.3,1.2-3.8,1.2c-1.8,0-3.4-0.6-4.7-1.9
		c-1.3-1.3-1.9-3-1.9-5.2c0-2,0.6-3.7,1.9-5c1.2-1.3,2.7-2,4.4-2c2,0,3.6,0.6,4.7,1.9c1.1,1.3,1.7,2.9,1.7,5c0,0.3,0,0.6-0.1,0.8
		h-9.9c0,1.2,0.4,2.1,1.2,2.9c0.8,0.8,1.7,1.1,2.8,1.1C335.8,149,337.1,148.1,337.6,146.3z M330,142.9h7.2c0-1-0.4-1.8-1-2.4
		c-0.6-0.6-1.5-0.9-2.6-0.9c-1,0-1.9,0.3-2.5,1C330.4,141.2,330.1,142,330,142.9z"/>
	<path class="st2" d="M350.6,137.5v2.7c-0.4-0.1-0.8-0.1-1.1-0.1c-2.4,0-3.6,1.4-3.6,4.1v6.6h-2.6v-13.2h2.5v2.3
		c0.8-1.7,2.1-2.5,4-2.5C350,137.4,350.3,137.4,350.6,137.5z"/>
	<path class="st2" d="M363.1,150.8h-10.6v-2.3l7.3-8.6h-7.1v-2.3H363v2.3l-7.3,8.6h7.4V150.8z"/>
	<path class="st2" d="M367.2,139.2c1.3-1.3,2.9-2,4.8-2c2,0,3.6,0.7,4.8,2c1.3,1.3,1.9,3,1.9,5c0,2-0.6,3.7-1.9,5
		c-1.3,1.3-2.9,2-4.9,2s-3.6-0.7-4.9-2c-1.3-1.3-1.9-3-1.9-5C365.3,142.2,365.9,140.5,367.2,139.2z M369.1,147.7
		c0.8,0.8,1.8,1.2,2.9,1.2s2.1-0.4,2.9-1.2c0.8-0.8,1.2-2,1.2-3.5c0-1.5-0.4-2.6-1.2-3.4c-0.8-0.8-1.8-1.2-2.9-1.2s-2.1,0.4-2.9,1.2
		c-0.8,0.8-1.2,2-1.2,3.4C367.9,145.7,368.3,146.9,369.1,147.7z"/>
	<path class="st2" d="M384.7,143.2v7.6h-2.6v-13.2h2.5v1.9c0.9-1.5,2.2-2.3,4.1-2.3c1.5,0,2.7,0.5,3.5,1.5c0.8,1,1.2,2.2,1.2,3.8
		v8.4h-2.6v-7.9c0-2.2-1-3.3-3.1-3.3c-1,0-1.7,0.3-2.3,1C385,141.3,384.7,142.2,384.7,143.2z"/>
	<path class="st2" d="M406.8,146.3l2.2,0.8c-0.4,1.2-1.1,2.2-2.1,3c-1,0.8-2.3,1.2-3.8,1.2c-1.8,0-3.4-0.6-4.7-1.9
		c-1.3-1.3-1.9-3-1.9-5.2c0-2,0.6-3.7,1.9-5c1.2-1.3,2.7-2,4.4-2c2,0,3.6,0.6,4.7,1.9c1.1,1.3,1.7,2.9,1.7,5c0,0.3,0,0.6-0.1,0.8
		h-9.9c0,1.2,0.4,2.1,1.2,2.9c0.8,0.8,1.7,1.1,2.8,1.1C405,149,406.2,148.1,406.8,146.3z M399.2,142.9h7.2c0-1-0.4-1.8-1-2.4
		c-0.6-0.6-1.5-0.9-2.6-0.9c-1,0-1.9,0.3-2.5,1C399.6,141.2,399.3,142,399.2,142.9z"/>
</g>
<g class="st1">
	<path class="st2" d="M228.2,176.3c-2.7,0-4.9-0.9-6.8-2.7c-1.9-1.8-2.8-4.3-2.8-7.4c0-2.1,0.5-3.9,1.4-5.5c1-1.6,2.2-2.7,3.6-3.5
		c1.4-0.8,3-1.1,4.6-1.1c2.2,0,4.1,0.6,5.6,1.7c1.5,1.1,2.5,2.6,3,4.5l-2.5,0.9c-0.4-1.5-1.1-2.6-2.1-3.4c-1-0.8-2.4-1.2-4-1.2
		c-1.9,0-3.5,0.7-4.9,2s-2,3.2-2,5.6s0.7,4.3,2,5.7c1.4,1.4,3,2,4.9,2c1.6,0,2.9-0.4,4-1.3c1.1-0.9,1.8-2,2.2-3.4l2.4,0.9
		c-0.5,1.9-1.6,3.4-3.1,4.5S230.4,176.3,228.2,176.3z"/>
	<path class="st2" d="M248.9,171.4l2.2,0.8c-0.4,1.2-1.1,2.2-2.1,3c-1,0.8-2.3,1.2-3.8,1.2c-1.8,0-3.4-0.6-4.7-1.9
		c-1.3-1.3-1.9-3-1.9-5.2c0-2,0.6-3.7,1.9-5c1.2-1.3,2.7-2,4.4-2c2,0,3.6,0.6,4.7,1.9c1.1,1.3,1.7,2.9,1.7,5c0,0.3,0,0.6-0.1,0.8
		h-9.9c0,1.2,0.4,2.1,1.2,2.9c0.8,0.8,1.7,1.1,2.8,1.1C247,174.1,248.3,173.2,248.9,171.4z M241.3,168h7.2c0-1-0.4-1.8-1-2.4
		c-0.6-0.6-1.5-0.9-2.6-0.9c-1,0-1.9,0.3-2.5,1C241.7,166.2,241.3,167,241.3,168z"/>
	<path class="st2" d="M257.1,168.3v7.6h-2.6v-13.2h2.5v1.9c0.9-1.5,2.2-2.3,4.1-2.3c1.5,0,2.7,0.5,3.5,1.5c0.8,1,1.2,2.2,1.2,3.8
		v8.4h-2.6V168c0-2.2-1-3.3-3.1-3.3c-1,0-1.7,0.3-2.3,1C257.3,166.4,257.1,167.2,257.1,168.3z"/>
	<path class="st2" d="M273.4,158.5v4.2h2.9v2.3h-2.9v6.9c0,0.6,0.1,1.1,0.4,1.4c0.3,0.3,0.8,0.4,1.4,0.4c0.4,0,0.7,0,1-0.1v2.2
		c-0.4,0.2-1,0.2-1.8,0.2c-1.1,0-2-0.3-2.7-1s-1-1.6-1-2.8V165h-2.5v-2.3h0.7c0.7,0,1.2-0.2,1.5-0.6s0.5-0.9,0.5-1.5v-2.1H273.4z"/>
	<path class="st2" d="M286.7,162.6v2.7c-0.4-0.1-0.8-0.1-1.1-0.1c-2.4,0-3.6,1.4-3.6,4.1v6.6h-2.6v-13.2h2.5v2.3
		c0.8-1.7,2.1-2.5,4-2.5C286.2,162.5,286.4,162.5,286.7,162.6z"/>
	<path class="st2" d="M298.3,174.3c-0.3,0.7-0.9,1.2-1.6,1.5c-0.7,0.3-1.5,0.5-2.3,0.5c-1.5,0-2.7-0.5-3.6-1.5
		c-0.9-1-1.3-2.3-1.3-3.8v-8.3h2.6v7.9c0,1,0.2,1.8,0.7,2.4c0.5,0.6,1.2,1,2.3,1s1.8-0.3,2.3-0.9c0.5-0.6,0.8-1.4,0.8-2.5v-8h2.6
		v10.8c0,0.9,0,1.7,0.1,2.4h-2.5C298.3,175.5,298.3,175,298.3,174.3z"/>
	<path class="st2" d="M307.7,175.9h-2.6v-13.2h2.5v1.8c0.4-0.7,1-1.2,1.7-1.6s1.5-0.5,2.3-0.5c0.9,0,1.6,0.2,2.4,0.6
		c0.7,0.4,1.2,1,1.6,1.9c0.9-1.7,2.4-2.5,4.4-2.5c1.3,0,2.3,0.4,3.2,1.3c0.9,0.9,1.3,2.1,1.3,3.7v8.6H322v-8.3
		c0-0.9-0.2-1.6-0.7-2.2c-0.5-0.5-1.2-0.8-2.1-0.8c-0.9,0-1.6,0.3-2.2,0.9c-0.6,0.6-0.9,1.4-0.9,2.4v8h-2.6v-8.3
		c0-0.9-0.2-1.6-0.7-2.2c-0.5-0.5-1.2-0.8-2.1-0.8c-0.9,0-1.7,0.3-2.2,0.9c-0.6,0.6-0.9,1.4-0.9,2.4V175.9z"/>
</g>
<g>
	<path class="st3" d="M207.4,156.5c-0.2-4.6-2.3-10.2-6.2-16.5c0,0-11.6-18.6-30.4-36.7c0.4,0.4,0.7,0.9,0.9,1.3c0,0,0,0.1,0.1,0.1
		c0,0,0,0.1,0.1,0.1c0.4,0.5,0.7,1.1,1,1.7c0,0,0.1,0.1,0.1,0.1c0,0,0.1,0.1,0.1,0.1c0.3,0.6,0.6,1.1,0.9,1.8
		c0.1,0.1,0.1,0.2,0.2,0.4c0.3,0.7,0.5,1.3,0.8,1.9c0,0.1,0,0.1,0.1,0.2c0,0,0,0.1,0,0.1c0.2,0.6,0.4,1.3,0.6,1.9c0,0,0,0.1,0,0.1
		c0,0,0,0.1,0,0.1c0.2,0.6,0.3,1.3,0.4,2l0,0.1c0,0.1,0,0.2,0.1,0.3c0.1,0.5,0.2,1.1,0.2,1.6c1.6,11.9-5.3,20.6-7.4,22.9
		c2.6,2.5,11.1,11,11.1,16.6c0,2.6-0.8,5.1-2.4,7.2c-1.5,1.9-3.4,3.4-5.7,4.1c0.2,0,0.4-0.1,0.7-0.1l0.3,0c0.5-0.1,0.9-0.1,1.4-0.2
		c0.3-0.1,0.6-0.1,0.9-0.2l0.2-0.1c0.5-0.1,0.9-0.2,1.4-0.3c0.4-0.1,0.7-0.2,1.1-0.3c0.4-0.1,0.9-0.3,1.4-0.4
		c0.4-0.1,0.8-0.3,1.1-0.4c0.5-0.2,0.9-0.4,1.3-0.5c0.3-0.1,0.6-0.3,1-0.5c0.4-0.2,0.9-0.4,1.2-0.6c0.4-0.2,0.7-0.4,1-0.5
		c0.4-0.2,0.8-0.4,1.2-0.7c0.4-0.2,0.7-0.4,0.9-0.6c0.4-0.3,0.8-0.6,1.1-0.8c0.3-0.2,0.6-0.4,0.9-0.7c0.4-0.3,0.8-0.6,1.1-0.9
		l0.1-0.1c0.3-0.2,0.5-0.4,0.8-0.7c0.4-0.3,0.7-0.7,1-1l0.1-0.1c0.2-0.2,0.4-0.4,0.6-0.6c0.3-0.3,0.6-0.7,0.9-1l0.2-0.2
		c0.2-0.2,0.4-0.4,0.6-0.7c0.3-0.3,0.5-0.7,0.8-1l0.1-0.1c0.1-0.1,0.1-0.2,0.2-0.2c0.2-0.2,0.3-0.4,0.5-0.7c0.2-0.3,0.4-0.7,0.7-1
		l0.1-0.2c0.1-0.1,0.1-0.2,0.2-0.3c0.1-0.2,0.3-0.4,0.4-0.6c0.2-0.4,0.4-0.8,0.6-1.2l0.1-0.2c0.1-0.1,0.1-0.2,0.2-0.3
		c0.1-0.2,0.2-0.4,0.3-0.6c0.2-0.5,0.4-1,0.6-1.4l0.1-0.1c0.1-0.1,0.1-0.2,0.1-0.3c0.1-0.1,0.1-0.3,0.2-0.5c0.3-0.8,0.6-1.6,0.9-2.5
		c0.1-0.4,0.2-0.7,0.3-1.1c0,0.2-0.1,0.4-0.1,0.5c-3.6,14-15.8,24.2-30.2,25.4c-0.9,0.1-1.7,0.2-2.6,0.1c-2.9-0.2-5.6-1.4-7.6-3.4
		c-1.9-1.9-3.2-4.4-3.5-7.1c0,0,0,0,0,0c-0.2,1.3-0.2,2.5-0.2,3.6c0.2,1.7,0.3,3.4,0.7,5c2.9,11.7,13.8,19.7,25.8,19.2
		c0.6,0,1.2-0.1,1.9-0.1c0.1,0,0.2,0,0.3,0c0.1,0,0.1,0,0.2,0l0.1,0c0.4-0.1,0.8-0.1,1.2-0.2c0.1,0,0.2,0,0.3-0.1
		c0.1,0,0.1,0,0.2-0.1l0.1,0c0.4-0.1,0.8-0.2,1.1-0.3c0.1,0,0.2-0.1,0.3-0.1c0.1,0,0.1-0.1,0.2-0.1l0.1,0c0.4-0.1,0.8-0.2,1.2-0.4
		c0.1,0,0.1,0,0.2-0.1c0.1,0,0.1,0,0.1-0.1c0.4-0.1,0.9-0.3,1.4-0.5c0.1,0,0.1,0,0.1-0.1c0,0,0.1,0,0.1-0.1c0.4-0.2,0.9-0.4,1.4-0.6
		c0.1,0,0.1-0.1,0.1-0.1c0,0,0.1-0.1,0.1-0.1c0.4-0.2,0.9-0.5,1.3-0.7c0.1,0,0.1-0.1,0.2-0.1c0.1,0,0.1-0.1,0.1-0.1
		c0.4-0.2,0.8-0.5,1.1-0.8c0.1-0.1,0.1-0.1,0.2-0.1c0.1,0,0.1-0.1,0.2-0.1c0.3-0.2,0.7-0.5,1.1-0.8c0.1-0.1,0.1-0.1,0.2-0.2
		c0.1-0.1,0.1-0.1,0.2-0.1l0.1-0.1c0.3-0.3,0.6-0.5,0.9-0.8c0.1-0.1,0.2-0.2,0.2-0.2c0.1-0.1,0.1-0.1,0.2-0.2l0.1-0.1
		c0.2-0.2,0.5-0.5,0.7-0.7c0.1-0.1,0.2-0.2,0.3-0.3c0.1-0.1,0.1-0.1,0.2-0.2l0.1-0.2c0.2-0.2,0.4-0.5,0.6-0.7
		c0.1-0.1,0.2-0.3,0.3-0.4c0.1-0.1,0.1-0.2,0.2-0.2s0.1-0.1,0.2-0.2c0.1-0.2,0.3-0.4,0.4-0.6c0.1-0.2,0.2-0.4,0.3-0.5
		c0.1-0.1,0.1-0.2,0.2-0.3s0.1-0.2,0.2-0.3c0.1-0.2,0.2-0.3,0.3-0.5c0.1-0.2,0.2-0.4,0.3-0.6c0.1-0.1,0.1-0.2,0.1-0.3
		c0.1-0.1,0.1-0.2,0.1-0.3c0.1-0.2,0.2-0.3,0.3-0.5c0.1-0.2,0.2-0.5,0.3-0.7c0-0.1,0.1-0.2,0.1-0.3c0-0.1,0.1-0.2,0.1-0.3
		c0.1-0.1,0.1-0.3,0.2-0.4l0-0.1h0.1c0,0,0.5-1.1,0.6-1.6l0,0l0.1-0.3l0,0c0-0.1,0.1-0.2,0.1-0.4l0,0l0.1-0.3h0
		c0-0.1,0.1-0.2,0.1-0.3l0-0.1l0.1-0.3h0c0-0.1,0.1-0.2,0.1-0.3l0-0.1l0.1-0.3h0c0-0.1,0-0.2,0.1-0.3v-0.1c0-0.1,0-0.2,0.1-0.2
		l0-0.1h0c0-0.1,0-0.2,0.1-0.3h0l0.1-0.4h0C207.3,162.5,207.6,159.5,207.4,156.5z"/>
	<path class="st4" d="M203.1,174.5c0,0.1-0.1,0.1-0.1,0.1c0,0.1-0.3,0.4-0.4,0.5c-0.3,0.5-0.8,0.9-1.1,1.4c-0.1,0.1-0.1,0.1-0.1,0.2
		c0,0.1-0.1,0.1-0.1,0.1c-0.2,0.3-0.6,0.7-0.9,1.1c-0.1,0.1-0.2,0.2-0.3,0.3c-0.1,0.1-0.1,0.1-0.2,0.2c-0.2,0.3-0.5,0.6-0.8,0.8
		c-0.1,0.1-0.2,0.2-0.4,0.3c-0.1,0.1-0.1,0.1-0.2,0.2l0,0c-0.2,0.2-0.5,0.5-0.7,0.7c-0.1,0.1-0.3,0.3-0.5,0.4l-0.1,0.1
		c-0.2,0.2-0.5,0.4-0.8,0.6c-0.2,0.1-0.3,0.2-0.5,0.4l-0.1,0.1c-0.3,0.2-0.5,0.4-0.8,0.6c-0.2,0.1-0.4,0.3-0.6,0.4
		c-0.3,0.2-0.6,0.4-0.9,0.5c-0.2,0.1-0.4,0.2-0.7,0.4c-0.3,0.1-0.6,0.3-0.9,0.4c-0.3,0.1-0.5,0.2-0.7,0.3c-0.3,0.1-0.5,0.2-0.9,0.4
		l-0.1,0c-0.2,0.1-0.4,0.2-0.6,0.2c-0.3,0.1-0.6,0.2-0.9,0.3l-0.2,0.1c-0.2,0.1-0.4,0.1-0.6,0.2c-0.3,0.1-0.7,0.2-1,0.3l-0.2,0.1
		c-0.2,0.1-0.4,0.1-0.5,0.1c-0.3,0.1-0.6,0.1-1,0.2l-0.1,0c-0.1,0-0.1,0-0.2,0c-0.2,0-0.3,0.1-0.5,0.1c-0.4,0.1-0.8,0.1-1.1,0.1
		l-0.1,0c-0.1,0-0.2,0-0.2,0c-0.1,0-0.2,0-0.4,0c-0.6,0-1.2,0.1-1.8,0.1c-12.2,0-22.8-8.7-25.2-20.6c-0.3-1.7-0.5-3.4-0.5-5.1
		c0-0.7,0-1.6,0.2-2.6c0.1-1,0.3-2.1,0.6-3.2c0-0.2,0.1-0.4,0.2-0.6c0-0.1,0-0.1,0.1-0.2c0.1-0.2,0.1-0.4,0.1-0.5l0,0
		c1.8-5.4,8.6-12.1,10.6-14.1c0.3-0.2,0.5-0.5,0.8-0.7c0.2-0.2,0.4-0.4,0.6-0.6c4.9-5.1,7.6-11.7,7.6-18.8c0-0.4,0-0.9,0-1.4
		c0-0.1,0-0.2,0-0.3c0-0.1,0-0.1,0-0.2V118c0-0.3,0-0.6-0.1-0.8c0-0.1,0-0.2,0-0.3c0-0.1,0-0.1,0-0.2l0-0.2c0-0.2-0.1-0.4-0.1-0.7
		c0-0.1,0-0.2-0.1-0.3c0-0.1,0-0.1,0-0.2l0-0.2c0-0.2-0.1-0.4-0.1-0.6c0-0.1-0.1-0.3-0.1-0.4c0-0.1,0-0.1,0-0.2l0-0.2
		c0-0.2-0.1-0.4-0.1-0.6c0-0.1-0.1-0.2-0.1-0.4c0-0.1,0-0.1-0.1-0.2l0-0.1c-0.1-0.2-0.1-0.4-0.2-0.6c0-0.1-0.1-0.3-0.1-0.4l-0.1-0.3
		c-0.1-0.2-0.1-0.3-0.2-0.5c-0.1-0.1-0.1-0.3-0.2-0.4l-0.1-0.2c-0.1-0.2-0.2-0.4-0.2-0.6c-0.1-0.2-0.1-0.3-0.2-0.4l-0.1-0.2
		c-0.1-0.2-0.2-0.4-0.2-0.5c-0.1-0.2-0.1-0.3-0.2-0.4l-0.1-0.2c-0.1-0.2-0.2-0.4-0.3-0.6c-0.1-0.1-0.1-0.3-0.2-0.4l-0.1-0.2
		c-0.1-0.2-0.2-0.4-0.3-0.6c-0.1-0.2-0.2-0.3-0.3-0.5l-0.1-0.1c-0.1-0.2-0.2-0.3-0.3-0.5c-0.1-0.1-0.2-0.3-0.3-0.4l-0.1-0.1
		c-0.1-0.2-0.3-0.4-0.4-0.6c-0.1-0.2-0.3-0.3-0.4-0.5c-0.2-0.2-0.3-0.4-0.4-0.5c-0.1-0.2-0.3-0.3-0.4-0.5c-0.1-0.2-0.3-0.3-0.5-0.5
		c-0.1-0.2-0.3-0.3-0.4-0.5c-0.1-0.1-0.1-0.1-0.1-0.1c0.1,0.2,0.1,0.4,0.2,0.7l0.1,0.2c0,0.1,0,0.1,0.1,0.2c0,0.1,0.1,0.1,0.1,0.2
		c0,0.1,0.1,0.2,0.1,0.3c0,0.1,0,0.1,0.1,0.2c0.4,1.5,0.6,2.9,0.6,4.4c0,7.9-5.1,14.9-12.7,17.3l0,0l0,0c0,0,0,0-0.1,0
		c0,0-0.1,0-0.1,0l-0.2,0.1l0-0.2c-0.3-3.1-1.5-6.1-3.3-8.6l0,0l0,0c0,0,0,0,0,0c0,0,0,0,0,0c-2.6,2.9-5.1,5.8-7.3,8.6
		c-4.6,5.7-8.3,11-11.1,15.9c-0.3,0.6-0.7,1.2-1,1.8c-0.2,0.4-0.5,0.9-0.7,1.4c-2.6,5.4-4,10.1-4,14c0,3.3,0.4,6.7,1.3,9.9
		c0.1,0.6,0.3,1.1,0.5,1.6c2.3,7.4,6.9,14.1,13,19c0.2,0.2,0.5,0.4,0.7,0.5c0.1,0.1,0.1,0.1,0.2,0.2c6.5,4.8,14.6,7.7,23.3,7.7
		c9.9,0,18.8-3.6,25.7-9.6c0,0,0.1,0,0.1-0.1c0.3-0.2,0.5-0.5,0.8-0.7c0.5-0.4,0.9-0.9,1.3-1.3c0.1-0.1,0.1-0.1,0.1-0.1
		C198.7,181.5,201.3,178.2,203.1,174.5C203,174.6,203.1,174.4,203.1,174.5z"/>
</g>
</svg>
